HIERARCHY
ROOT Hips
{
	OFFSET 0.000000 0.000000 0.000000
	CHANNELS 6 Xposition Yposition Zposition Xrotation Yrotation Zrotation
	JOINT Thigh.L
	{
		OFFSET 0.054830 0.026616 -0.093236
		CHANNELS 3 Xrotation Yrotation Zrotation
		JOINT Shin.L
		{
			OFFSET 0.059364 0.005984 -0.403313
			CHANNELS 3 Xrotation Yrotation Zrotation
			JOINT Foot.L
			{
				OFFSET -0.042043 0.030890 -0.428455
				CHANNELS 3 Xrotation Yrotation Zrotation
				JOINT Toe.L
				{
					OFFSET 0.047561 -0.124672 -0.062953
					CHANNELS 3 Xrotation Yrotation Zrotation
					End Site
					{
						OFFSET 0.000000 0.050000 0.000000
					}
				}
			}
		}
	}
	JOINT Thigh.R
	{
		OFFSET -0.059932 0.021057 -0.105633
		CHANNELS 3 Xrotation Yrotation Zrotation
		JOINT Shin.R
		{
			OFFSET -0.048419 0.013885 -0.385061
			CHANNELS 3 Xrotation Yrotation Zrotation
			JOINT Foot.R
			{
				OFFSET 0.014227 0.019205 -0.437230
				CHANNELS 3 Xrotation Yrotation Zrotation
				JOINT Toe.R
				{
					OFFSET -0.039172 -0.125564 -0.062904
					CHANNELS 3 Xrotation Yrotation Zrotation
					End Site
					{
						OFFSET 0.000000 0.050000 0.000000
					}
				}
			}
		}
	}
	JOINT Spine
	{
		OFFSET -0.002670 0.027530 0.111999
		CHANNELS 3 Xrotation Yrotation Zrotation
		JOINT Spine.2
		{
			OFFSET 0.008832 0.007114 0.138965
			CHANNELS 3 Xrotation Yrotation Zrotation
			JOINT Chest
			{
				OFFSET -0.010697 -0.022654 0.055190
				CHANNELS 3 Xrotation Yrotation Zrotation
				JOINT Neck
				{
					OFFSET -0.011928 0.025447 0.166462
					CHANNELS 3 Xrotation Yrotation Zrotation
					JOINT Head
					{
						OFFSET 0.025098 -0.021203 0.165238
						CHANNELS 3 Xrotation Yrotation Zrotation
						End Site
						{
							OFFSET 0.000000 0.050000 0.000000
						}
					}
				}
				JOINT Clavicle.L
				{
					OFFSET 0.046726 0.004714 0.085778
					CHANNELS 3 Xrotation Yrotation Zrotation
					JOINT UpperArm.L
					{
						OFFSET 0.124709 0.014326 0.057810
						CHANNELS 3 Xrotation Yrotation Zrotation
						JOINT ForeArm.L
						{
							OFFSET 0.266638 0.042193 -0.074445
							CHANNELS 3 Xrotation Yrotation Zrotation
							JOINT Hand.L
							{
								OFFSET 0.270247 0.001287 0.022001
								CHANNELS 3 Xrotation Yrotation Zrotation
								JOINT Thumb1.L
								{
									OFFSET 0.154603 0.000570 0.009737
									CHANNELS 3 Xrotation Yrotation Zrotation
									JOINT Thumb2.L
									{
										OFFSET 0.029901 0.000142 0.002434
										CHANNELS 3 Xrotation Yrotation Zrotation
										End Site
										{
											OFFSET 0.024917 0.000119 0.002029
										}
									}
								}
								JOINT Index1.L
								{
									OFFSET 0.137603 0.000570 0.009737
									CHANNELS 3 Xrotation Yrotation Zrotation
									JOINT Index2.L
									{
										OFFSET 0.029901 0.000142 0.002434
										CHANNELS 3 Xrotation Yrotation Zrotation
										JOINT Index3.L
										{
											OFFSET 0.021927 0.000104 0.001785
											CHANNELS 3 Xrotation Yrotation Zrotation
											End Site
											{
												OFFSET 0.017940 0.000085 0.001461
											}
										}
									}
								}
								JOINT Middle1.L
								{
									OFFSET 0.119603 0.000570 0.009737
									CHANNELS 3 Xrotation Yrotation Zrotation
									JOINT Middle2.L
									{
										OFFSET 0.030897 0.000147 0.002515
										CHANNELS 3 Xrotation Yrotation Zrotation
										JOINT Middle3.L
										{
											OFFSET 0.021927 0.000104 0.001785
											CHANNELS 3 Xrotation Yrotation Zrotation
											End Site
											{
												OFFSET 0.017940 0.000085 0.001461
											}
										}
									}
								}
								JOINT Ring1.L
								{
									OFFSET 0.101603 0.000570 0.009737
									CHANNELS 3 Xrotation Yrotation Zrotation
									JOINT Ring2.L
									{
										OFFSET 0.028904 0.000138 0.002353
										CHANNELS 3 Xrotation Yrotation Zrotation
										JOINT Ring3.L
										{
											OFFSET 0.019934 0.000095 0.001623
											CHANNELS 3 Xrotation Yrotation Zrotation
											End Site
											{
												OFFSET 0.016944 0.000081 0.001379
											}
										}
									}
								}
								JOINT Pinky1.L
								{
									OFFSET 0.085603 0.000570 0.009737
									CHANNELS 3 Xrotation Yrotation Zrotation
									JOINT Pinky2.L
									{
										OFFSET 0.023921 0.000114 0.001947
										CHANNELS 3 Xrotation Yrotation Zrotation
										JOINT Pinky3.L
										{
											OFFSET 0.016944 0.000081 0.001379
											CHANNELS 3 Xrotation Yrotation Zrotation
											End Site
											{
												OFFSET 0.013954 0.000066 0.001136
											}
										}
									}
								}
							}
						}
					}
				}
				JOINT Clavicle.R
				{
					OFFSET -0.047473 0.010816 0.084974
					CHANNELS 3 Xrotation Yrotation Zrotation
					JOINT UpperArm.R
					{
						OFFSET -0.108097 0.010443 0.053875
						CHANNELS 3 Xrotation Yrotation Zrotation
						JOINT ForeArm.R
						{
							OFFSET -0.284648 0.027365 -0.039206
							CHANNELS 3 Xrotation Yrotation Zrotation
							JOINT Hand.R
							{
								OFFSET -0.266647 0.014662 -0.005290
								CHANNELS 3 Xrotation Yrotation Zrotation
								JOINT Thumb1.R
								{
									OFFSET -0.154795 0.006587 -0.002376
									CHANNELS 3 Xrotation Yrotation Zrotation
									JOINT Thumb2.R
									{
										OFFSET -0.029949 0.001647 -0.000594
										CHANNELS 3 Xrotation Yrotation Zrotation
										End Site
										{
											OFFSET -0.024957 0.001372 -0.000495
										}
									}
								}
								JOINT Index1.R
								{
									OFFSET -0.137795 0.006587 -0.002376
									CHANNELS 3 Xrotation Yrotation Zrotation
									JOINT Index2.R
									{
										OFFSET -0.029949 0.001647 -0.000594
										CHANNELS 3 Xrotation Yrotation Zrotation
										JOINT Index3.R
										{
											OFFSET -0.021963 0.001208 -0.000436
											CHANNELS 3 Xrotation Yrotation Zrotation
											End Site
											{
												OFFSET -0.017969 0.000988 -0.000356
											}
										}
									}
								}
								JOINT Middle1.R
								{
									OFFSET -0.119795 0.006587 -0.002376
									CHANNELS 3 Xrotation Yrotation Zrotation
									JOINT Middle2.R
									{
										OFFSET -0.030947 0.001702 -0.000614
										CHANNELS 3 Xrotation Yrotation Zrotation
										JOINT Middle3.R
										{
											OFFSET -0.021963 0.001208 -0.000436
											CHANNELS 3 Xrotation Yrotation Zrotation
											End Site
											{
												OFFSET -0.017969 0.000988 -0.000356
											}
										}
									}
								}
								JOINT Ring1.R
								{
									OFFSET -0.101795 0.006587 -0.002376
									CHANNELS 3 Xrotation Yrotation Zrotation
									JOINT Ring2.R
									{
										OFFSET -0.028951 0.001592 -0.000574
										CHANNELS 3 Xrotation Yrotation Zrotation
										JOINT Ring3.R
										{
											OFFSET -0.019966 0.001098 -0.000396
											CHANNELS 3 Xrotation Yrotation Zrotation
											End Site
											{
												OFFSET -0.016971 0.000933 -0.000337
											}
										}
									}
								}
								JOINT Pinky1.R
								{
									OFFSET -0.085795 0.006587 -0.002376
									CHANNELS 3 Xrotation Yrotation Zrotation
									JOINT Pinky2.R
									{
										OFFSET -0.023959 0.001317 -0.000475
										CHANNELS 3 Xrotation Yrotation Zrotation
										JOINT Pinky3.R
										{
											OFFSET -0.016971 0.000933 -0.000337
											CHANNELS 3 Xrotation Yrotation Zrotation
											End Site
											{
												OFFSET -0.013976 0.000769 -0.000277
											}
										}
									}
								}
							}
						}
					}
				}
			}
		}
	}
}
MOTION
Frames: 4
Frame Time: 0.03333333
-0.084695 0.041134 1.049574 33.552954 8.957021 -6.311565 -76.935110 -19.642139 -11.988396 52.874822 15.596582 0.692412 -8.422157 -0.391563 4.177451 2.127963 1.006287 0.544949 -75.950350 2.773239 6.639398 53.088078 -15.817834 -3.562882 -1.526570 -4.067883 -9.414841 -1.956891 -2.268306 -1.369008 77.955766 4.658040 -5.706910 -26.150007 -3.533608 -7.771020 10.544218 -11.931327 -8.165208 -15.373411 15.427343 7.438645 -24.473692 -18.766465 -1.727352 -9.702999 -3.523065 -39.982200 -24.504490 1.011514 -12.784000 -36.924958 13.920383 -12.132403 -29.743562 -18.088878 -13.787674 0.000000 0.000000 0.000000 0.000000 0.000000 0.000000 0.000000 0.000000 0.000000 0.000000 0.000000 0.000000 0.000000 0.000000 0.000000 0.000000 0.000000 0.000000 0.000000 0.000000 0.000000 0.000000 0.000000 0.000000 0.000000 0.000000 0.000000 0.000000 0.000000 0.000000 0.000000 0.000000 0.000000 0.000000 0.000000 0.000000 0.000000 0.000000 0.000000 0.000000 0.000000 0.000000 -5.833359 4.635188 22.071350 14.011970 -55.005102 4.464575 0.286994 8.729584 113.440959 -34.867543 10.224156 17.561302 0.000000 0.000000 0.000000 0.000000 0.000000 0.000000 0.000000 0.000000 0.000000 0.000000 0.000000 0.000000 0.000000 0.000000 0.000000 0.000000 0.000000 0.000000 0.000000 0.000000 0.000000 0.000000 0.000000 0.000000 0.000000 0.000000 0.000000 0.000000 0.000000 0.000000 0.000000 0.000000 0.000000 0.000000 0.000000 0.000000 0.000000 0.000000 0.000000 0.000000 0.000000 0.000000
-0.085121 0.041388 1.049807 33.559673 9.023535 -6.372538 -77.112781 -19.681308 -12.074594 53.155090 15.534658 0.651671 -8.248476 -0.280763 4.214007 2.153978 1.089187 0.566141 -76.074710 2.696157 6.665567 53.312507 -15.877865 -3.550766 -1.348369 -4.188579 -9.415466 -1.992171 -2.285200 -1.407333 78.090133 4.699178 -5.756624 -26.239547 -3.527340 -7.816942 10.584959 -11.983687 -8.184849 -15.378965 15.419388 7.502764 -24.525355 -18.866190 -1.706173 -9.729730 -3.659638 -40.057094 -24.520893 0.798671 -12.726478 -37.135070 13.955811 -11.814662 -29.956312 -18.172798 -13.740166 0.000000 0.000000 0.000000 0.000000 0.000000 0.000000 0.000000 0.000000 0.000000 0.000000 0.000000 0.000000 0.000000 0.000000 0.000000 0.000000 0.000000 0.000000 0.000000 0.000000 0.000000 0.000000 0.000000 0.000000 0.000000 0.000000 0.000000 0.000000 0.000000 0.000000 0.000000 0.000000 0.000000 0.000000 0.000000 0.000000 0.000000 0.000000 0.000000 0.000000 0.000000 0.000000 -5.944896 4.793778 22.152030 14.032074 -55.171682 4.518048 0.372292 8.760729 113.282234 -35.127195 10.350597 17.523576 0.000000 0.000000 0.000000 0.000000 0.000000 0.000000 0.000000 0.000000 0.000000 0.000000 0.000000 0.000000 0.000000 0.000000 0.000000 0.000000 0.000000 0.000000 0.000000 0.000000 0.000000 0.000000 0.000000 0.000000 0.000000 0.000000 0.000000 0.000000 0.000000 0.000000 0.000000 0.000000 0.000000 0.000000 0.000000 0.000000 0.000000 0.000000 0.000000 0.000000 0.000000 0.000000
-0.084520 0.041716 1.049897 33.536018 9.028228 -6.381615 -77.231832 -19.682941 -12.126108 53.421819 15.458595 0.606482 -8.080630 -0.169636 4.262192 2.188333 1.201623 0.594601 -76.169297 2.617551 6.703470 53.557677 -15.898165 -3.547247 -1.284813 -4.256551 -9.471435 -2.016883 -2.302369 -1.453017 78.257191 4.728138 -5.802077 -26.315336 -3.516105 -7.863819 10.642203 -12.040827 -8.211905 -15.386661 15.442869 7.568823 -24.528178 -18.975686 -1.626284 -9.759748 -3.795347 -40.151315 -24.524320 0.582213 -12.636085 -37.323124 14.037230 -11.495042 -30.163902 -18.309046 -13.644377 0.000000 0.000000 0.000000 0.000000 0.000000 0.000000 0.000000 0.000000 0.000000 0.000000 0.000000 0.000000 0.000000 0.000000 0.000000 0.000000 0.000000 0.000000 0.000000 0.000000 0.000000 0.000000 0.000000 0.000000 0.000000 0.000000 0.000000 0.000000 0.000000 0.000000 0.000000 0.000000 0.000000 0.000000 0.000000 0.000000 0.000000 0.000000 0.000000 0.000000 0.000000 0.000000 -6.046070 4.982994 22.260829 14.156752 -55.366323 4.657202 0.494734 8.755245 113.165313 -35.401745 10.504741 17.451304 0.000000 0.000000 0.000000 0.000000 0.000000 0.000000 0.000000 0.000000 0.000000 0.000000 0.000000 0.000000 0.000000 0.000000 0.000000 0.000000 0.000000 0.000000 0.000000 0.000000 0.000000 0.000000 0.000000 0.000000 0.000000 0.000000 0.000000 0.000000 0.000000 0.000000 0.000000 0.000000 0.000000 0.000000 0.000000 0.000000 0.000000 0.000000 0.000000 0.000000 0.000000 0.000000
-0.084738 0.041862 1.050034 33.511014 9.090311 -6.415802 -77.357975 -19.728177 -12.189711 53.670591 15.406086 0.538817 -7.924341 -0.061747 4.313158 2.258919 1.301879 0.615480 -76.229743 2.528704 6.703838 53.746304 -15.920544 -3.561946 -1.186674 -4.327695 -9.493756 -2.034739 -2.309786 -1.503320 78.431688 4.780819 -5.845331 -26.410865 -3.512664 -7.907263 10.695936 -12.110285 -8.238130 -15.335095 15.437873 7.609839 -24.486115 -19.089018 -1.580702 -9.765910 -3.920503 -40.233563 -24.544958 0.422910 -12.604701 -37.505384 14.055471 -11.178440 -30.334265 -18.363961 -13.580245 0.000000 0.000000 0.000000 0.000000 0.000000 0.000000 0.000000 0.000000 0.000000 0.000000 0.000000 0.000000 0.000000 0.000000 0.000000 0.000000 0.000000 0.000000 0.000000 0.000000 0.000000 0.000000 0.000000 0.000000 0.000000 0.000000 0.000000 0.000000 0.000000 0.000000 0.000000 0.000000 0.000000 0.000000 0.000000 0.000000 0.000000 0.000000 0.000000 0.000000 0.000000 0.000000 -6.124434 5.180441 22.348013 14.183619 -55.559639 4.744220 0.543948 8.825256 113.012230 -35.630460 10.596777 17.357955 0.000000 0.000000 0.000000 0.000000 0.000000 0.000000 0.000000 0.000000 0.000000 0.000000 0.000000 0.000000 0.000000 0.000000 0.000000 0.000000 0.000000 0.000000 0.000000 0.000000 0.000000 0.000000 0.000000 0.000000 0.000000 0.000000 0.000000 0.000000 0.000000 0.000000 0.000000 0.000000 0.000000 0.000000 0.000000 0.000000 0.000000 0.000000 0.000000 0.000000 0.000000 0.000000
